<?xml version="1.0" encoding="utf-8"?>
<!-- Generator: Adobe Illustrator 21.0.0, SVG Export Plug-In . SVG Version: 6.00 Build 0)  -->
<svg version="1.1" id="Layer_1" xmlns="http://www.w3.org/2000/svg" xmlns:xlink="http://www.w3.org/1999/xlink" x="0px" y="0px"
	 viewBox="0 0 481.4 141" style="enable-background:new 0 0 481.4 141;" xml:space="preserve">
<style type="text/css">
	.st0{fill:#E30613;}
</style>
<g>
	<g>
		<path class="st0" d="M307.5,79.1c-4.4,3.2-9.4,4.8-15,4.8c-6.7,0-12.1-2.2-16-6.5c-4-4.3-5.9-9.9-5.9-16.6c0-8.6,3-15.9,9.1-21.9
			s13.2-9,21.3-9c5.5,0,10,1.5,13.4,4.6s5.4,7.3,5.9,12.7l34.8-6.2c-0.4-12.4-5.5-22.3-15.1-29.8C330.4,3.7,318.3,0,303.7,0
			c-19.2,0-35.2,6.3-48,18.9c-12.8,12.6-19.2,27.6-19.2,45.2c0,14.7,4.8,26.7,14.4,35.9c9.6,9.2,22.8,13.8,39.6,13.8
			c15,0,27.6-3.7,37.9-11c10.3-7.3,17.5-17.5,21.6-30.5l-32.5-6.7C315.3,71.4,311.9,75.9,307.5,79.1z"/>
		<polygon class="st0" points="447.8,2.4 438.7,42.1 401.9,42.1 411,2.4 377.4,2.4 352.3,111.4 386,111.4 395.3,70.7 432,70.7 
			422.7,111.4 456.4,111.4 481.4,2.4 		"/>
		<polygon class="st0" points="234,30.2 240.3,2.4 153.3,2.4 153.3,2.4 6.5,2.4 0,30.9 33.6,30.9 14.9,111.4 48.6,111.4 67.3,30.9 
			90.3,30.9 83.2,61.6 116.9,61.6 124,30.9 146.7,30.9 128.1,111.4 215.9,111.4 222.4,83.6 168.3,83.6 171.5,69.4 220.5,69.4 
			226.2,44.4 177.2,44.4 180.5,30.2 		"/>
		<polygon class="st0" points="71.7,111.4 105.3,111.4 112.5,80.4 78.8,80.4 		"/>
	</g>
	<g>
		<path class="st0" d="M19.2,124c1.7,0,3,0.4,4,1.3s1.5,2.1,1.5,3.6c0,1.9-0.7,3.5-2.1,4.7c-1.4,1.2-3.2,1.8-5.5,1.8H13l-1.2,5h-4
			l3.8-16.5h7.6V124z M17.3,132.1c1,0,1.7-0.3,2.4-0.8c0.6-0.5,0.9-1.2,0.9-2c0-0.6-0.2-1-0.5-1.4c-0.4-0.3-0.9-0.5-1.6-0.5h-3.6
			l-1.1,4.6L17.3,132.1L17.3,132.1z"/>
		<path class="st0" d="M40.6,132.3c-0.9,1.1-2.1,1.8-3.6,2.2l3.4,6h-4.5l-3-5.7h-2.5l-1.3,5.7h-4l3.8-16.5h7.8c1.7,0,3,0.4,4,1.2
			c1,0.8,1.5,2,1.5,3.4C41.9,130.1,41.5,131.3,40.6,132.3z M34.6,131.5c1,0,1.7-0.2,2.3-0.7c0.6-0.4,0.9-1,0.9-1.7
			c0-0.5-0.2-0.9-0.5-1.2c-0.4-0.3-0.8-0.4-1.4-0.4H32l-0.9,4L34.6,131.5L34.6,131.5z"/>
		<path class="st0" d="M48.7,130.6h8l-0.8,3.3h-8l-0.7,3.1H56l-0.8,3.5H42.4l3.8-16.5h12.7l-0.8,3.5h-8.7L48.7,130.6z"/>
		<path class="st0" d="M74.7,125.3c1.4,1.1,2.1,2.6,2.3,4.4l-4.2,0.8c-0.1-1-0.5-1.7-1.1-2.3c-0.6-0.5-1.4-0.8-2.4-0.8
			c-1.5,0-2.9,0.6-4,1.7s-1.7,2.4-1.7,4c0,1.2,0.4,2.2,1.1,3c0.7,0.8,1.7,1.2,2.9,1.2c1.1,0,2-0.3,2.8-0.8c0.8-0.6,1.4-1.3,1.8-2.3
			l3.8,1c-0.6,1.8-1.6,3.2-3.1,4.2s-3.3,1.6-5.4,1.6c-2.4,0-4.4-0.7-5.8-2.1c-1.4-1.4-2.2-3.2-2.2-5.5c0-2.7,1-4.9,2.9-6.8
			s4.3-2.8,7.1-2.8C71.6,123.7,73.3,124.2,74.7,125.3z"/>
		<path class="st0" d="M84.8,140.5h-4.1l1.2-5.1l-3.8-11.3h4.1l2.4,7.2l5.7-7.2h4.9L86,135.4L84.8,140.5z"/>
		<path class="st0" d="M99.3,137.1h7.9l-0.8,3.4H92.7l0.6-2.6l10.7-10.5h-8l0.8-3.4H110l-0.7,3.1L99.3,137.1z"/>
		<path class="st0" d="M122.9,134.6c-0.4,2-1.3,3.5-2.6,4.6c-1.3,1.1-2.9,1.7-4.7,1.7c-1.8,0-3.3-0.5-4.4-1.5s-1.6-2.3-1.7-4l4-0.8
			c0,0.9,0.1,1.5,0.5,2s1,0.7,1.7,0.7c0.8,0,1.4-0.2,2-0.7c0.5-0.5,0.9-1.1,1.1-2l2.5-10.6h4L122.9,134.6z"/>
		<path class="st0" d="M136.8,140.5l-0.5-3h-6.9l-1.9,3h-4.6l10.7-16.5h4.2l3.1,16.5H136.8z M134.9,128.6l-3.4,5.4h4.2L134.9,128.6z
			"/>
		<path class="st0" d="M166.9,140.5h-4.4l-0.4-10.2l-5.1,10.2h-4.3l-0.9-16.5h4l0.5,10.4l5.3-10.4h3.9l0.4,10.4l5.3-10.4h4.3
			L166.9,140.5z"/>
		<path class="st0" d="M195.6,140.5h-4.8l-4.1-6.2h-1l-1.4,6.2h-4.1L184,124h4l-1.5,6.5h0.4l7-6.5h5.3l-9,8.6L195.6,140.5z"/>
		<path class="st0" d="M210.1,140.5l-0.5-3h-6.9l-1.9,3h-4.6l10.7-16.5h4.2l3.1,16.5H210.1z M208.2,128.6l-3.4,5.4h4.2L208.2,128.6z
			"/>
		<path class="st0" d="M222.4,137.1h7.9l-0.8,3.4h-13.7l0.6-2.6l10.7-10.5h-8l0.8-3.4h13.2l-0.7,3.1L222.4,137.1z M225.7,121.9
			c-0.4-0.4-0.6-0.9-0.6-1.6c0-0.6,0.2-1.1,0.6-1.5s0.9-0.6,1.6-0.6s1.1,0.2,1.6,0.6c0.4,0.4,0.6,0.9,0.6,1.5s-0.2,1.1-0.6,1.6
			c-0.4,0.4-0.9,0.6-1.6,0.6C226.6,122.5,226.1,122.3,225.7,121.9z"/>
		<path class="st0" d="M242.7,124c2.3,0,4.2,0.6,5.5,1.9c1.4,1.2,2,2.9,2,5c0,2.7-1,5-3.1,6.8s-4.6,2.8-7.7,2.8h-7l3.8-16.5
			L242.7,124L242.7,124z M239.1,137c1.8,0,3.5-0.5,4.8-1.6c1.4-1.1,2.1-2.5,2.1-4.2c0-1.1-0.3-2-1-2.6s-1.7-0.9-2.9-0.9h-2.5
			l-2.2,9.4L239.1,137L239.1,137z"/>
		<path class="st0" d="M258.2,140.5h-4.1l1.2-5.1l-3.8-11.3h4.1l2.4,7.2l5.7-7.2h4.9l-9.2,11.3L258.2,140.5z"/>
		<path class="st0" d="M286.1,140.5h-3.9l1.9-8.2l-6,8.2h-2.9l-2.3-8.2l-1.9,8.2h-3.9l3.8-16.5h3.6l3.1,10.7l8-10.7h4.3L286.1,140.5
			z"/>
		<path class="st0" d="M314.9,140.5H311l1.9-8.2l-6,8.2H304l-2.3-8.2l-1.9,8.2h-3.9l3.8-16.5h3.6l3.1,10.7l8-10.7h4.3L314.9,140.5z"
			/>
		<path class="st0" d="M318.4,140.5l3.8-16.5h4l-3.8,16.5H318.4z"/>
		<path class="st0" d="M338.1,140.5h-12.2l3.8-16.5h4l-3,12.9h8.1L338.1,140.5z"/>
		<path class="st0" d="M340.9,140.5l3.8-16.5h4l-3.8,16.5H340.9z"/>
		<path class="st0" d="M367.4,140.5h-3.9l1.9-8.2l-6,8.2h-2.9l-2.3-8.2l-1.9,8.2h-3.9l3.8-16.5h3.6l3.1,10.7l8-10.7h4.3L367.4,140.5
			z"/>
		<path class="st0" d="M377.2,130.6h8l-0.8,3.3h-8l-0.7,3.1h8.8l-0.8,3.5h-12.8l3.8-16.5h12.7l-0.8,3.5h-8.7L377.2,130.6z"/>
		<path class="st0" d="M398.4,127.6l-3,12.9h-4.1l3-12.9H389l0.8-3.5h14.7l-0.8,3.5H398.4z"/>
		<path class="st0" d="M418.9,132.3c-0.9,1.1-2.1,1.8-3.6,2.2l3.4,6h-4.5l-3-5.7h-2.5l-1.3,5.7h-4l3.8-16.5h7.8c1.7,0,3,0.4,4,1.2
			c1,0.8,1.5,2,1.5,3.4C420.2,130.1,419.8,131.3,418.9,132.3z M412.9,131.5c1,0,1.7-0.2,2.3-0.7c0.6-0.4,0.9-1,0.9-1.7
			c0-0.5-0.2-0.9-0.5-1.2c-0.4-0.3-0.8-0.4-1.4-0.4h-3.9l-0.9,4L412.9,131.5L412.9,131.5z"/>
		<path class="st0" d="M426.8,137.1h7.9l-0.8,3.4h-13.7l0.6-2.6l10.7-10.5h-8l0.8-3.4h13.2l-0.7,3.1L426.8,137.1z"/>
		<path class="st0" d="M443.3,130.6h8l-0.8,3.3h-8l-0.7,3.1h8.8l-0.8,3.5H437l3.8-16.5h12.7l-0.8,3.5H444L443.3,130.6z"/>
	</g>
</g>
</svg>
